<svg width="350" height="350" viewBox="0 0 350 350" fill="none" xmlns="http://www.w3.org/2000/svg">
<rect width="350" height="350" fill="#D43B57"/>
<path d="M54.6305 229.218H68.6589V133.995H54.6305V107.213H119.884C126.969 107.213 133.204 108.205 138.589 110.189C144.115 112.173 148.72 114.865 152.405 118.266C156.231 121.667 159.065 125.776 160.907 130.594C162.891 135.27 163.883 140.371 163.883 145.898V148.448C163.883 156.95 161.474 163.752 156.656 168.853C151.98 173.955 146.028 177.497 138.801 179.481V183.307C146.028 185.291 151.98 188.904 156.656 194.147C161.474 199.248 163.883 206.05 163.883 214.552V217.103C163.883 222.629 162.891 227.801 160.907 232.619C159.065 237.295 156.231 241.405 152.405 244.947C148.72 248.348 144.115 251.04 138.589 253.024C133.204 255.008 126.969 256 119.884 256H54.6305V229.218ZM96.7159 229.218H117.121C123.072 229.218 127.89 227.943 131.575 225.392C135.259 222.842 137.101 218.591 137.101 212.639V211.364C137.101 205.412 135.259 201.161 131.575 198.611C127.89 196.06 123.072 194.785 117.121 194.785H96.7159V229.218ZM96.7159 168.003H117.121C123.072 168.003 127.89 166.799 131.575 164.39C135.259 161.839 137.101 157.588 137.101 151.637V150.361C137.101 144.41 135.259 140.23 131.575 137.821C127.89 135.27 123.072 133.995 117.121 133.995H96.7159V168.003ZM213.897 256H187.115V107.213H213.897V165.878H217.723C220.557 160.068 224.666 155.604 230.051 152.487C235.436 149.228 242.308 147.598 250.669 147.598C256.904 147.598 262.784 148.803 268.311 151.212C273.979 153.621 278.867 157.163 282.977 161.839C287.228 166.374 290.558 171.971 292.967 178.631C295.517 185.291 296.793 192.872 296.793 201.374V205.2C296.793 213.844 295.588 221.496 293.179 228.156C290.77 234.816 287.511 240.484 283.402 245.16C279.292 249.694 274.404 253.166 268.736 255.575C263.209 257.842 257.187 258.976 250.669 258.976C245.851 258.976 241.671 258.48 238.128 257.488C234.586 256.496 231.468 255.15 228.776 253.449C226.225 251.749 224.029 249.836 222.187 247.71C220.486 245.443 218.998 243.105 217.723 240.696H213.897V256ZM241.954 233.469C250.314 233.469 257.045 230.919 262.147 225.818C267.39 220.575 270.011 213.489 270.011 204.562V202.012C270.011 193.084 267.39 186.07 262.147 180.969C257.045 175.726 250.314 173.104 241.954 173.104C233.594 173.104 226.792 175.797 221.549 181.181C216.448 186.424 213.897 193.368 213.897 202.012V204.562C213.897 213.206 216.448 220.22 221.549 225.605C226.792 230.848 233.594 233.469 241.954 233.469Z" fill="white"/>
</svg>
