<svg width="275" height="548" viewBox="0 0 275 548" fill="none" xmlns="http://www.w3.org/2000/svg">
<path fill-rule="evenodd" clip-rule="evenodd" d="M187.112 274.593C187.268 275.365 187.503 276.199 187.747 276.948C186.529 278.119 184.804 279.688 183.566 280.821C184.79 273.274 181.065 266.308 178.785 259.169C179.645 258.069 182.64 256.942 182.544 255.722C182.313 251.202 181.972 246.156 181.48 240.497C179.815 222.825 178.159 204.395 182.088 186.668C182.356 184.741 182.764 182.715 185.353 182.67C193.002 213.049 186.804 243.635 186.973 274.205L186.75 274.404L187.112 274.593ZM198.564 523.495C204.849 523.497 210.626 522.357 216.219 520.049C217.833 519.483 219.838 518.779 220.117 517.639C220.577 514.518 220.259 511.451 219.922 508.204C219.389 502.635 219.442 498.306 217.936 492.309C216.324 486.74 214.951 482.387 216.524 476.628C216.65 474.914 215.306 473.17 214.419 471.567C213.162 469.226 212.525 466.79 211.527 464.39C213.487 464.048 215.523 463.579 217.405 462.998L217.721 464.133C217.791 464.383 217.982 464.509 218.29 464.509C218.48 464.509 218.967 464.418 219.038 464.012C218.743 459.627 218.315 455.264 217.866 450.808C213.2 407.892 206.136 372.515 194.272 337.231C191.422 328.968 188.512 320.366 188.491 311.388C190.111 311.041 191.915 310.842 193.566 311.07C205.331 308.349 203.005 283.513 202.537 276.081C203.367 275.832 204.295 275.48 204.984 275.009L205.262 275.144C216.944 246.21 212.147 198.373 209.475 166.213C207.722 154.653 210.188 133.771 199.917 128.059C191.625 125.128 183.369 123.481 174.703 121.548C173.099 120.629 171.118 120.104 169.327 119.509L170.252 118.211C171.466 116.505 171.304 113.159 169.717 111.984C168.742 112.038 167.372 113.015 166.44 113.474C165.099 110.708 163.858 107.814 162.967 104.49L162.647 104.604C161.71 95.2019 149.494 93.5609 142.606 96.7029C135.086 100.822 139.003 110.141 135.584 116.868L134.345 115.219C132.431 115.184 128.384 117.687 127.41 118.627C126.712 118.951 127.217 121.136 127.115 122.015C117.028 124.294 103.221 124.92 100.014 136.218C94.6801 157.464 95.4301 179.246 89.3776 200.416C83.0414 217.577 73.7353 238.576 73.657 254.292C73.4763 257.237 73.079 273.896 75.5221 273.226L77.1345 274.832C74.9378 278.331 76.6819 283.568 77.5233 287.711C79.5966 296.502 83.6481 305.974 92.3018 301.761C101.609 353.049 125.002 404.788 117.022 457.688C116.927 457.998 117.12 458.337 117.453 458.202L117.845 458.021C118.86 458.334 120.148 458.443 121.208 458.68C120.306 462.054 119.823 465.383 119.354 469.115C118.787 469.453 119.052 470.346 119.023 470.887C110.555 470.482 105.805 479.331 99.7326 484.198C95.7228 487.768 91.1562 491.167 86.1589 494.301C82.0293 496.642 78.5449 499.323 79.1723 503.746C79.1127 503.739 77.8385 503.542 77.7761 503.537C75.8551 509.916 82.1626 511.234 88.6585 512.003C104.532 513.596 118.102 510.076 136.48 503.406C138.734 503.673 140.491 500.329 140.791 498.061C141.087 496.541 140.244 494.996 140.888 493.36C143.104 488.661 144.257 476.221 141.133 470.64C140.036 469.375 138.63 468.208 138.812 466.024C138.863 463.837 139.069 461.652 138.884 459.504C142.639 459.141 146.357 458.334 149.633 457.024C150.213 457.247 150.872 456.973 150.912 456.247C151.541 446.248 152.294 435.321 152.456 425.084C153.211 402.804 148.106 381.064 144.199 359.455C143.927 352.524 142.645 345.827 142.241 338.892C141.806 332.315 141.729 325.876 141.351 319.308L143.606 318.82C162.326 366.984 176.986 415.187 187.247 462.354C187.014 462.552 186.355 462.775 186.383 463.177C186.391 463.392 186.385 463.406 186.533 463.427C189.012 463.924 191.465 464.289 193.921 464.573C193.229 470.459 196.924 477.261 193.654 482.774C192.785 484.103 192.748 484.38 193.28 485.294C188.516 494.143 185.564 501.506 183.65 509.417L182.417 508.376C180.63 509.672 180.593 512.119 180.554 514.705C180.681 516.212 179.944 517.791 181.073 519.059C183.792 522.23 193.266 523.478 198.564 523.495V523.495Z" fill="white"/>
<path fill-rule="evenodd" clip-rule="evenodd" d="M163.746 103.073C162.447 104.123 163.802 111.701 164.849 113.247C157.767 117.799 150.611 122.247 143.306 126.416L142.549 126.846L142.573 126.84C142.269 126.975 141.756 127.096 141.455 127.036L141.248 126.968C141.206 126.954 141.181 126.948 141.193 126.958C141.071 126.893 140.953 126.825 140.838 126.746C138.755 124.85 137.237 121.635 135.605 119.135C138.383 116.689 136.999 111.921 136.886 108.664C136.361 108.651 136.299 110.315 136.149 110.798L136.064 111.258C135.864 112.336 135.636 113.434 135.223 114.436C134.021 112.916 127.938 116.506 126.799 117.661C125.557 118.451 125.938 119.856 125.954 121.092C114.41 123.334 99.6898 124.911 98.1385 139.376C96.3134 147.136 95.3383 155.035 94.4363 162.943L94.2894 164.206C92.7126 177.814 91.3131 191.592 86.8612 204.622L85.1604 208.672C81.4802 217.454 77.8901 226.309 75.5402 235.55C73.7183 239.494 68.8671 277.132 76.1642 274.228C73.6691 278.293 75.5368 283.64 76.403 287.986C78.1986 295.117 81.7824 306.772 91.4244 303.335C98.695 342.127 113.096 379.501 116.737 418.968C117.92 431.796 117.895 444.778 115.887 457.526C115.616 458.737 116.775 459.807 117.961 459.276C118.556 459.446 119.186 459.497 119.796 459.612C119.093 462.435 118.681 465.383 118.307 468.268L118.266 468.588L118.264 468.589C117.972 468.913 117.829 469.322 117.842 469.785C113.437 469.801 109.751 472.64 106.816 475.656C101.727 480.973 96.3534 486.043 90.263 490.216C85.9033 493.754 78.255 495.828 78.0096 502.405C75.7841 502.029 76.3167 506.884 76.7115 508.167C77.1737 509.604 78.5168 510.431 79.8051 511.072C98.3296 517.269 118.734 511.233 136.346 504.578C139.433 504.986 141.639 500.907 141.969 498.219C142.305 496.735 141.515 495.292 141.975 493.846L142.127 493.449C142.681 491.995 143.205 490.574 143.521 489.034L143.567 488.713C144.318 483.392 144.923 474.382 142.067 469.931C138.737 467.081 140.461 464.35 140.127 460.553C143.415 460.179 146.667 459.436 149.744 458.254C150.957 458.512 152.016 457.531 152.096 456.356L152.214 454.478C152.835 444.702 153.482 434.916 153.643 425.119C154.403 402.891 149.357 381.138 145.385 359.427C144.994 351.058 143.393 342.792 143.168 334.402C143 329.346 142.79 324.304 142.536 319.257C160.553 365.605 175.34 413.247 185.952 461.832C184.976 462.493 184.87 464.297 186.323 464.586C188.449 465.009 190.589 465.356 192.738 465.617C192.394 470.834 195.503 477.891 192.623 482.313L192.508 482.49C191.962 483.338 191.427 484.306 191.986 485.291C188.243 492.303 184.999 499.62 183.003 507.344C180.722 506.41 179.423 511.037 179.49 512.709C179.636 514.9 178.453 518.595 180.346 520.093C190.289 526.491 203.786 525.499 214.623 521.956C216.633 521.095 218.936 520.51 220.659 519.135C221.44 518.344 221.387 517.044 221.45 516.016L221.47 515.485C221.572 512.527 221.562 509.514 220.751 506.601C220.968 502.382 220.337 498.106 219.506 493.978C218.974 490.646 217.442 487.48 217.236 484.117C216.148 481.108 218.11 478.294 217.583 475.287C217.152 473.454 215.804 471.87 215.023 470.163L214.968 470.041C214.261 468.489 213.755 466.881 213.143 465.289C214.316 465.066 215.474 464.791 216.615 464.461C217.161 466.436 220.321 465.878 220.227 463.865C217.632 431.399 212.475 399.114 204.492 367.529C200.768 348.848 191.15 331.43 189.7 312.367C190.854 312.151 192.169 312.095 193.299 312.226L193.434 312.242C194.157 312.332 194.851 312.458 195.625 312.094C205.565 305.966 204.543 287.191 203.789 276.914C204.238 276.765 204.667 276.58 205.057 276.348C205.402 276.605 205.926 276.619 206.128 276.147C206.637 274.953 207.291 273.787 207.734 272.573C219.25 233.045 211.896 191.39 209.577 151.096C208.674 142.817 208.667 131.578 200.429 127.016C197.664 125.709 194.544 125.148 191.597 124.394C184.835 122.381 177.772 121.479 171.223 118.903C172.747 116.79 172.384 113.709 171.115 111.583C170.108 110.054 168.175 111.224 166.98 111.875C165.601 109.062 164.655 106.062 163.746 103.073ZM182.586 509.149L182.525 509.432C182.202 510.947 181.923 512.537 182.085 514.078C177.802 518.246 197.54 518.773 199.718 518.764C204.702 518.713 219.356 517.055 220.08 511.057L220.072 511.201C219.975 513.109 220.299 516.671 219.26 518.081C211.402 522.161 202.259 523.776 193.464 522.77L193.148 522.728C189.642 522.247 182.984 520.832 181.254 517.914C181.636 515.198 180.697 511.307 182.586 509.149ZM196.8 482.207C201.61 476.981 209.512 480.801 214.584 483.716C214.776 486.005 216.383 486.847 216.449 489.248C217.529 496.581 220.02 504.871 216.847 511.952C207.389 517.006 196.141 516.664 185.908 514.488C185.64 514.14 185.301 514.036 184.818 513.903C184.514 511.755 185.129 509.595 185.536 507.509C186.559 503.126 187.882 498.821 189.06 494.478C191.169 493.118 191.94 490.261 193.041 488.107C193.339 487.503 193.645 486.898 193.965 486.299C195.682 485.737 196.132 483.69 196.8 482.207ZM140.409 496.624C140.927 501.895 135.775 503.996 131.611 505.261C126.924 506.924 122.122 508.305 117.294 509.498C107.401 512.042 97.0883 513.157 86.9482 511.562L86.7721 511.531C83.8464 511.017 78.6053 510.399 77.9401 507.018L77.933 506.94C77.8879 506.386 77.8015 504.301 78.0102 503.767C78.0869 503.766 78.162 503.749 78.2337 503.714C79.0814 506.42 82.1698 508.065 85.1464 508.49C86.5503 509.897 89.1365 509.375 91.0079 509.455C103.361 509.333 115.236 505.516 126.941 501.968C130.666 500.675 138.09 499.749 140.409 496.624ZM139.348 469.492C141.492 468.738 141.899 474.732 142.173 476.196C142.864 482.385 142.848 492.036 137.828 496.426C132.59 498.665 126.937 499.692 121.535 501.454L120.256 501.829C110.016 504.822 99.4918 507.62 88.7434 507.179C87.9324 505.56 82.7858 506.906 80.8228 504.021C78.1901 499.439 84.8383 496.487 87.9842 494.536C94.0258 490.665 99.669 486.164 104.758 481.108C107.15 478.732 109.34 476.011 112.149 474.101L112.296 474.003C114.703 472.409 117.793 471.421 120.62 472.467C123.373 473.485 124.385 476.624 126.694 478.245C131.839 481.575 137.109 476.313 138.781 471.551L138.831 471.407C138.891 471.259 138.727 471.169 138.604 471.209C138.615 471.162 138.624 471.114 138.634 471.067C139.283 470.898 139.344 470.091 139.348 469.492ZM212.536 465.401C211.863 469.193 213.757 472.596 215.17 475.951C215.551 478.175 214.153 480.307 214.476 482.57C209.85 478.945 202.848 475.731 197.267 479.042C197.237 475.844 196.135 472.741 195.176 469.719L194.787 468.519C194.484 467.588 194.176 466.66 193.835 465.744C200.05 466.392 206.342 466.456 212.536 465.401ZM121.507 459.872C126.946 460.621 132.445 461.051 137.922 460.75L137.299 470.176V470.176C137.274 470.562 137.438 470.83 137.68 470.984C136.872 474.046 134.331 476.772 131.179 477.435C126.312 478.063 125.657 471.62 121.524 470.429C122.315 468.655 121.748 466.322 121.826 464.39C121.782 462.869 121.704 461.364 121.507 459.872ZM139.419 468.403C139.525 468.619 139.648 468.821 139.783 469.016C139.64 469.029 139.501 469.072 139.371 469.151C139.386 468.902 139.403 468.653 139.419 468.403ZM188.408 276.34C193.168 277.986 198.363 278.323 203.267 277.072C202.191 285.12 201.111 304.184 194.257 308.832C193.099 308.665 191.936 308.584 190.767 308.7C190.071 308.77 189.383 308.882 188.693 308.988C188.434 309.024 187.917 309.051 187.588 309.028L187.532 309.023C187.619 309.03 187.687 309.028 187.595 309.022L187.455 309.015L187.383 309.009C185.006 308.796 182.862 305.446 180.51 307.054C180.165 306.532 179.643 306.197 179.242 305.733C177.458 302.613 179.354 298.598 178.161 295.309C178.612 294.695 178.463 293.774 177.756 293.248C176.653 292.237 174.323 292.99 173.688 291.538C173.731 291.617 173.735 291.525 173.718 291.478L173.714 291.468L173.825 291.376C178.696 287.35 183.405 282.851 186.597 277.266L186.704 277.077C187.315 277.669 188.318 277.217 188.408 276.34ZM77.1993 273.609C80.553 275.441 84.1637 276.768 87.9095 277.535C88.6788 284.889 89.5632 292.247 90.7693 299.541L90.4835 299.592C88.8108 299.897 87.0487 300.309 85.6036 299.158C80.8459 294.541 79.1311 285.257 77.2627 278.987L77.189 278.702C76.7965 277.164 76.3458 275.037 77.1993 273.609ZM125.965 121.606C126.465 124.103 123.709 151.281 128.735 146.632C132.136 141.299 136.027 136.309 139.505 131.031C139.984 132.918 138.582 135.159 139.245 136.759C130.394 181.036 123.973 225.996 121.594 271.102C117.682 273.844 114.251 277.169 110.889 280.538C109.841 281.428 109.08 282.882 107.778 283.394C102.495 277.43 96.3922 272.26 90.8378 266.556C90.8896 266.164 90.948 265.775 91.0147 265.385C91.2917 263.765 89.2044 262.944 88.3985 263.938C86.7136 259.668 86.5563 254.649 86.9736 250.067C87.7928 242.366 90.671 235.008 92.7273 227.586C98.6535 204.882 102.755 181.064 100.814 157.56C100.786 157.342 100.495 157.339 100.47 157.56C98.8591 182.391 96.3494 207.291 88.8707 231.158L88.6927 231.748C85.7706 241.394 82.1564 251.62 84.6577 261.737C84.4501 263.099 85.1048 264.456 86.0942 265.435C86.5347 266.499 87.0253 267.553 87.6076 268.546C87.4069 270.849 87.504 273.158 87.7077 275.451C83.8636 274.63 80.2778 273.059 76.849 271.165C76.6454 270.009 76.4669 268.85 76.3284 267.686C73.667 246.101 81.785 225.11 89.9068 205.515C97.6459 182.679 96.1347 157.898 102.603 134.797C106.694 125.789 117.871 125.081 125.965 121.606ZM169.833 119.933L170.099 120.026C171.963 120.681 173.831 121.44 175.823 121.496C182.075 123.573 188.486 125.168 194.842 126.901L195.457 127.069C198.17 127.814 200.909 128.665 202.74 130.939C204.495 133.121 205.229 135.93 205.803 138.612C208.491 162.052 210.014 185.729 211.379 209.31C212.049 228.943 211.667 248.905 206.641 268.009C205.931 270.627 205.068 273.253 204.762 275.942C204.397 275.947 204.029 275.972 203.661 276.009C203.655 275.833 203.388 275.862 203.407 276.034C198.523 276.803 193.446 276.348 188.863 274.457C189.995 240.063 197.354 202.734 180.685 170.828C180.617 170.706 180.41 170.79 180.457 170.924L180.868 172.108C182.19 175.921 183.481 179.74 184.411 183.673C183.086 183.476 182.12 186.574 181.87 187.333C174.645 209.229 179.095 232.594 180.015 255.081C167.576 264.109 155.016 272.989 142.089 281.31C136.218 277.502 130.959 272.507 124.927 269.053C126.651 222.596 136.147 176.631 141.308 130.748C143.223 133.123 145.172 135.47 147.12 137.818C149.624 140.887 152.045 144.036 154.515 147.134C155.025 147.777 156.138 147.528 156.502 146.88C161.365 138.106 164.458 128.416 169.833 119.933ZM184.495 184.023C191.67 213.511 185.708 243.878 185.821 273.702C185.287 274.174 185.485 275.067 186.108 275.391C186.2 275.802 186.308 276.21 186.435 276.618C185.935 277.092 185.431 277.564 184.922 278.03C185.309 271.538 182.035 265.64 180.138 259.544C181.502 258.329 184.057 257.577 183.717 255.359C183.453 250.537 183.116 245.718 182.708 240.907L182.456 238.214C180.865 221.14 179.514 203.788 183.253 186.903L183.276 186.775C183.398 186.036 183.631 184.173 184.495 184.023ZM76.8765 273.434L76.9347 273.465L76.805 273.575C76.8316 273.53 76.8549 273.482 76.8765 273.434ZM119.798 263.387C121.462 261.76 118.894 259.18 117.252 260.846C115.59 262.476 118.16 265.055 119.798 263.387ZM120.894 244.039C121.262 243.077 120.24 241.551 119.159 242.19L119.126 242.211L119.111 242.191C118.088 242.794 118.465 244.043 119.066 244.787C119.731 245.471 120.56 244.659 120.894 244.039ZM122.455 221.765C125.348 217.982 119.27 216.43 120.266 221.087C120.478 221.958 122.228 223.228 122.455 221.765ZM126.734 200.689C128.269 198.816 124.968 197.204 124.278 199.44C123.882 200.931 125.747 201.851 126.734 200.689ZM111.371 154.226C110.462 154.367 105.865 153.43 107.048 155.34C105.199 164.563 99.9975 175.816 107.423 183.874L107.49 183.939C108.585 185.031 110.336 187.627 112.012 186.557C115.732 183.425 120.525 181.187 123.368 177.179C124.563 174.034 123.545 170.521 123.862 167.231C123.997 163.07 124.691 158.947 124.839 154.792C124.846 154.591 124.627 154.526 124.491 154.611C120.128 154.265 115.743 154.341 111.371 154.226ZM124.343 154.902C122.37 161.314 122.325 168.17 122.378 174.816C122.347 175.501 122.225 176.168 121.867 176.691C119.046 180.011 115.026 182.092 111.677 184.85C110.322 183.966 109.248 182.836 108.287 181.555C102.402 173.869 107.735 164.194 107.728 155.635L108.482 155.637C113.765 155.644 119.097 155.574 124.343 154.902ZM128.783 178.715L128.733 178.716C126.708 178.721 127.173 182.144 129.083 181.675C130.693 181.294 130.447 178.736 128.783 178.715V178.715ZM132.753 161.242C134.156 158.857 129.528 157.934 130.015 160.689L130.005 160.576C130.003 160.554 130.001 160.534 129.999 160.517L130.034 160.775V160.775C130.202 161.993 132.612 162.866 132.753 161.242ZM135.861 141.49C134.575 141.15 133.626 142.953 134.729 143.761C136.369 144.996 137.781 141.919 135.861 141.49ZM167.394 113.554L167.551 113.409C169.229 111.871 170.488 111.101 170.86 114.236C171.119 115.765 170.896 117.693 169.428 118.597C162.398 125.535 159.734 135.44 155.204 143.972C151.114 139.028 147.307 133.881 143.351 128.836C148.801 125.522 154.305 122.232 159.681 118.774C162.25 117.069 165.015 115.517 167.394 113.554ZM132.005 117.643C134.119 121.088 136.071 124.814 138.767 127.862C139.111 128.207 139.468 128.48 139.837 128.688C139.309 128.536 138.611 128.93 138.677 129.507C134.753 133.412 131.544 137.954 128.479 142.55C127.893 134.947 129.01 127.313 128.578 119.698C129.574 118.784 130.76 118.158 132.005 117.643Z" fill="black"/>
<path fill-rule="evenodd" clip-rule="evenodd" d="M115.496 53.9247C115.552 51.9336 118.454 51.1068 119.292 53.0789C119.344 53.1316 119.401 53.1824 119.454 53.2279C119.192 53.0033 119.74 53.3749 119.83 53.4209C119.906 53.4602 119.984 53.4956 120.062 53.5323C120.601 48.4879 122.432 43.0498 127.163 40.5178C133.761 37.3247 141.384 36.7015 148.623 37.0187C152.29 37.2358 156.524 37.8209 159.782 35.9696C160.797 35.3928 161.611 34.4848 162.758 34.1283C166.379 33.1507 168.022 36.8616 167.528 39.9134C169.073 39.9255 170.605 40.7789 171.272 42.184C171.663 43.0155 171.656 43.9129 171.994 44.7475C173.03 46.8639 174.511 48.3851 173.674 50.9511C175.147 52.6244 174.307 55.1576 173.118 56.7597C172.531 57.5929 171.832 58.3928 171.401 59.3255C170.984 60.2185 171.614 61.2775 171.965 62.1241C174.558 68.26 174.41 75.0173 173.014 81.4175C175.814 82.6299 176.654 86.4198 174.829 88.8061C174.2 89.6497 173.434 89.9627 172.565 90.4817C171.465 91.0858 172.363 93.5056 172.011 94.6742C171.533 97.5271 168.93 99.284 166.356 97.4314C164.723 97.1848 163.406 101.927 162.22 103.117C161.489 104.076 160.678 104.938 159.796 105.732C157.168 112.48 143.702 115.902 137.044 115.512C130.072 114.783 125.369 108.874 121.453 103.63C119.442 100.836 118.134 97.7081 117.658 94.2971C117.18 90.8689 117.389 87.4345 117.712 84.0021C118.391 76.7095 119.461 66.203 120.153 58.8316C117.655 58.6263 115.42 56.5037 115.496 53.9247V53.9247Z" fill="white"/>
<path fill-rule="evenodd" clip-rule="evenodd" d="M169.954 49.54C169.957 49.5503 169.953 49.5581 169.951 49.569C169.95 49.5659 169.95 49.5642 169.949 49.5604C169.951 49.5521 169.952 49.5466 169.954 49.54" fill="#4F66AF"/>
<path fill-rule="evenodd" clip-rule="evenodd" d="M169.956 49.6461C169.965 49.6365 169.978 49.6293 169.991 49.6197C169.991 49.62 169.991 49.6204 169.991 49.6207C169.979 49.6287 169.968 49.6378 169.956 49.6461" fill="#4F66AF"/>
<path fill-rule="evenodd" clip-rule="evenodd" d="M115.894 54.8673C115.073 54.1869 113.781 54.8134 114.059 55.9335C114.361 57.1534 115.671 57.987 116.753 58.4882C117.866 59.0039 118.95 59.1033 120.165 59.047L120.18 59.0437V59.0437C119.843 60.3929 119.651 61.7955 119.394 63.1529C119.066 64.875 118.744 66.5979 118.427 68.3217C118.12 69.9878 117.732 71.6562 117.496 73.3306C117.259 75.0209 117.03 76.7124 116.797 78.4032C116.407 81.2271 116.092 84.064 115.761 86.896L115.602 88.2365C115.27 91.0739 115.003 93.9147 115.632 96.7383C116.222 99.3845 117.552 101.853 119.094 104.062C120.604 106.225 122.291 108.305 124.143 110.186C127.715 113.815 132.12 116.721 137.285 117.26C139.509 117.492 141.884 117.234 143.975 116.427L144.114 116.373C146.231 115.539 148.822 114.111 149.373 111.768C149.711 110.331 148.227 109.208 146.926 109.89C146.323 110.207 145.87 110.568 145.375 111.02L145.287 111.101C144.883 111.476 144.727 111.591 144.26 111.885C143.303 112.486 142.586 112.77 141.498 113.043C139.494 113.546 137.33 113.467 135.295 112.872C130.975 111.608 127.623 108.311 124.752 105.005C123.193 103.21 121.713 101.327 120.572 99.2347C119.374 97.0395 118.822 94.7348 118.855 92.2371C118.892 89.4188 119.283 86.5895 119.539 83.7846C119.8 80.925 120.041 78.0665 120.253 75.2029C120.453 72.5175 120.472 69.82 120.541 67.1263L120.555 66.6212C120.596 65.1912 120.624 63.7607 120.657 62.3303C120.689 60.9041 120.802 59.4598 120.655 58.0396C120.645 57.9362 120.505 57.91 120.471 58.0146C120.384 58.2807 120.308 58.5509 120.236 58.8227C120.225 58.8144 120.213 58.8069 120.198 58.8017C119.246 58.4753 118.37 57.8238 117.656 57.1211C116.974 56.4505 116.618 55.4683 115.894 54.8673ZM167.964 34.8858C167.366 32.4354 164.676 31.8881 162.686 33.0681C161.729 33.6356 160.963 34.454 160.069 35.1045C159.181 35.7512 158.199 36.2706 157.162 36.6374C155.103 37.3661 152.932 37.631 150.756 37.6405C145.46 37.6636 140.272 36.1783 134.969 36.344C130.865 36.4722 126.509 37.6826 123.532 40.6432C121.929 42.2381 120.895 44.2886 120.341 46.4654C120.082 47.4828 119.889 48.5249 119.736 49.5645L119.699 49.8244C119.614 50.432 119.477 51.0752 119.464 51.6893C119.453 52.2408 119.593 52.818 119.669 53.3638C119.828 54.5144 121.614 54.3834 121.871 53.3638C122.455 51.0424 122.21 48.6466 122.924 46.3332C123.558 44.2817 124.785 42.4881 126.563 41.2613C134.064 36.0861 143.684 40.4199 151.949 40.0173C153.97 39.9189 156.019 39.6073 157.925 38.9131C158.907 38.5551 159.875 38.1185 160.766 37.5694C161.582 37.0666 162.289 36.4348 163.044 35.8534L163.378 35.6006C163.896 35.2117 164.778 34.6037 165.3 35.1181C165.528 35.342 165.541 35.8484 165.537 36.235L165.535 36.4098C165.511 38.0513 165.176 39.6898 165.791 41.2757C166.072 41.999 166.852 42.4551 167.594 42.0454L167.633 42.0235C169.203 41.0914 171.265 42.9643 170.059 44.5143L170.022 44.5612C169.343 45.3841 169.705 46.8333 170.919 46.8297L170.963 46.8289C173.127 46.7615 174.087 49.4602 172.222 50.6393L172.165 50.6746C170.65 51.5789 171.978 53.7531 173.53 53.0066C173.399 53.0699 173.627 53.0691 173.758 53.2442C173.884 53.4124 173.893 53.558 173.863 53.7704C173.773 54.4142 173.206 54.9567 172.746 55.364C171.702 56.2893 170.408 56.9282 169.075 57.3172C163.734 58.8754 158.255 56.9693 153.051 55.8182C147.626 54.6182 141.498 54.1348 136.767 57.5402C136.711 57.5804 136.76 57.6705 136.822 57.6346C140.218 55.6667 144.376 55.8414 148.088 56.6481C152.955 57.7062 157.779 59.6755 162.764 60.1944C161.365 62.6598 160.779 65.5717 161.153 68.3916C161.41 70.3328 162.184 72.0166 163.099 73.7229L163.273 74.0481C164.088 75.5797 164.72 77.0266 164.73 78.8009C164.74 80.5638 167.366 80.9355 167.811 79.2172C168.822 75.3149 165.14 72.2412 163.638 69.0233C162.354 66.2725 162.314 63.0653 163.353 60.2487C164.525 60.3428 165.707 60.3526 166.9 60.2463C167.925 60.1549 168.98 59.9706 170.007 59.6789L170.419 61.4039C170.963 63.7017 171.468 65.998 171.621 68.3846C171.734 70.1383 171.728 71.9007 171.556 73.6501C171.408 75.1611 171.096 76.6182 170.777 78.0934C170.504 78.4527 170.365 79.0027 170.442 79.4408C168.67 79.95 167.276 81.3454 166.767 83.1936C166.736 83.3061 166.894 83.3694 166.953 83.2718C168.161 81.2713 171.272 80.5352 173.24 81.8568C175.119 83.1186 175.861 85.6663 174.797 87.6831C174.237 88.7436 173.408 89.4888 172.338 90.002L172.123 90.1028C171.562 90.3675 171.047 90.656 170.687 91.1878C170.219 91.8775 170.203 92.6066 170.248 93.3947L170.267 93.7141C170.296 94.2424 170.303 94.7862 170.145 95.2944L170.109 95.4073C170.068 95.5341 170.024 95.6458 169.948 95.7669C169.926 95.8029 169.713 96.0114 169.643 96.0868L169.556 96.1131V96.1131L169.458 96.1171V96.1171C169.35 96.1188 169.207 96.0719 169.254 96.1044L169.241 96.0971C169.2 96.0715 169.162 96.0445 169.13 96.0205L169.07 95.9733C168.928 95.7689 168.75 95.6001 168.533 95.4714L168.325 95.379V95.379C167.784 94.8095 166.858 95.1087 166.471 95.676C166.192 96.084 166.042 96.4988 166.03 96.9079C165.986 96.8381 165.889 96.8 165.828 96.8781L165.46 97.3452C164.055 99.1374 162.674 100.941 161.077 102.574C160.197 103.475 159.25 104.32 158.261 105.1C157.417 105.765 155.814 106.405 155.79 107.617C155.782 108.01 156.062 108.289 156.404 108.422C157.519 108.856 158.896 107.379 159.701 106.66L159.766 106.602C160.751 105.741 161.65 104.796 162.48 103.785C164.091 101.821 165.439 99.5616 166.032 97.0757C166.06 97.5095 166.247 97.9346 166.61 98.3358C167.093 98.8696 167.755 99.2439 168.461 99.3981C170.062 99.7473 171.625 99.1723 172.578 97.841C173.383 96.7155 173.62 95.2294 173.516 93.8697L173.503 93.7065C173.489 93.4885 173.47 93.0883 173.414 92.918L173.918 92.6418V92.6418C174.536 92.3136 175.109 91.8833 175.623 91.4104C177.689 89.5095 178.725 86.4201 177.781 83.7168C177.19 82.0256 175.949 80.5542 174.359 79.7894C174.625 79.1765 174.713 78.4487 174.814 77.8048L174.83 77.6983C175.001 76.6419 175.143 75.5722 175.197 74.5032C175.299 72.5067 175.175 70.4915 174.861 68.5181C174.35 65.3129 173.293 61.9137 171.356 59.2248C172.834 58.639 174.194 57.7909 175.245 56.6133C176.342 55.3828 177.042 53.6211 176.193 52.0583C175.977 51.66 175.695 51.3252 175.371 51.0592C175.933 50.0009 176.114 48.75 175.768 47.5544C175.354 46.1251 174.229 45.0103 172.871 44.4897C173.201 43.1355 172.931 41.6788 171.923 40.5502C170.923 39.4305 169.371 39.0227 167.934 39.2786C167.856 37.8383 168.31 36.3064 167.964 34.8858ZM171.993 85.4562C170.676 84.8128 169.114 84.915 167.798 85.5248L167.709 85.5671C166.272 86.2623 164.37 87.8868 164.826 89.6146C165.094 90.625 166.218 90.97 167.091 90.5339C167.819 90.1694 167.986 89.5178 168.351 88.8633C168.61 88.4004 168.929 88.0385 169.304 87.6664C170.095 86.8822 170.984 86.2998 171.993 85.8337C172.139 85.7664 172.134 85.525 171.993 85.4562ZM138.799 50.5331C138.922 50.4769 138.833 50.2839 138.709 50.3192C135.398 51.2626 132.311 53.3804 130.467 56.3199C130.355 56.4992 130.337 56.7944 130.467 56.9719L130.527 57.0525C130.611 57.1627 130.695 57.244 130.854 57.2687C131.153 57.315 131.413 57.2372 131.585 56.9719C133.402 54.1702 135.73 51.9342 138.799 50.5331ZM116.636 51.088C116.356 50.614 115.612 50.7094 115.464 51.2409L115.443 51.2871C115.363 51.4683 115.399 51.5054 115.548 51.4029C115.179 51.7063 115.012 52.1582 115.125 52.6441C115.734 55.2684 118.713 57.1423 121.309 56.8844C121.536 56.8619 121.567 56.584 121.362 56.5011C120.363 56.0975 119.476 55.4419 118.763 54.6374C118.07 53.8555 117.779 52.9608 117.406 52.0165C117.266 51.662 117.048 51.4067 116.742 51.2674C116.701 51.2114 116.666 51.1518 116.636 51.088ZM131.402 49.4016L131.384 49.4027C130.05 49.5747 128.896 50.2318 127.959 51.1946C127.056 52.1217 125.918 53.6517 126.015 55.0123C126.08 55.9143 127.365 56.43 127.844 55.5068C128.131 54.956 128.195 54.3522 128.396 53.7697C128.58 53.2359 128.834 52.729 129.138 52.2536C129.764 51.2742 130.624 50.4444 131.505 49.6958C131.609 49.6082 131.537 49.4021 131.402 49.4016V49.4016ZM165.621 49.0019C165.917 48.7208 165.61 48.2416 165.233 48.3365C163.249 48.8379 161.284 49.4477 159.221 49.5083C158.19 49.5384 157.166 49.4573 156.145 49.3243L155.628 49.2558C154.832 49.1521 154.022 49.0707 153.235 49.2339C152.711 49.3426 152.608 50.017 152.935 50.3688C154.479 52.0305 157.456 51.8716 159.503 51.5915C161.726 51.2871 163.969 50.5728 165.621 49.0019ZM129.787 43.8226C129.923 43.6346 129.694 43.3379 129.478 43.4213C127.506 44.182 125.439 46.1623 124.896 48.2343C124.752 48.7816 125.444 49.1949 125.85 48.7886C126.607 48.0315 127.141 47.1371 127.781 46.2861C128.419 45.4377 129.165 44.6842 129.787 43.8226ZM162.098 44.7479C162.256 44.5902 162.097 44.2761 161.87 44.3564C160.586 44.8102 159.292 45.2028 157.943 45.4088C156.562 45.6196 155.167 45.4594 153.779 45.5448C153.217 45.5793 152.834 46.4515 153.459 46.7229C156.234 47.9287 160.003 46.8353 162.098 44.7479ZM158.552 42.0434C158.773 41.8806 158.647 41.4337 158.347 41.5584C157.124 42.0664 155.888 42.1913 154.576 42.139C154.091 42.1195 153.989 42.8797 154.462 42.9822C155.912 43.2971 157.367 42.918 158.552 42.0434Z" fill="black"/>
<path fill-rule="evenodd" clip-rule="evenodd" d="M127.15 74.2344C126.419 74.2121 125.714 74.2741 125.002 74.4286C123.587 74.7351 121.878 75.2748 120.761 76.2099L120.769 76.184C121.003 75.4205 121.234 74.6715 121.716 74.0197C122.296 73.2377 123.038 72.5979 123.892 72.123C124.757 71.6418 125.731 71.3388 126.71 71.2118C127.7 71.0836 129.14 70.9311 129.98 71.5653C130.257 71.7748 130.487 72.014 130.623 72.2978C130.738 72.538 130.785 72.8101 130.738 73.1212C130.693 73.4223 130.551 73.7391 130.337 73.9869C130.154 74.1988 129.917 74.3612 129.639 74.4116C129.114 74.5067 128.628 74.4285 128.141 74.3501L128.118 74.3464C127.799 74.2952 127.48 74.2443 127.15 74.2344ZM141.003 74.2272C141.206 74.251 141.408 74.2821 141.61 74.3141C142.199 74.4078 142.785 74.5202 143.366 74.6512C144.471 74.9001 145.567 75.2145 146.643 75.5697C147.649 75.9022 148.639 76.278 149.629 76.6537L149.788 76.7139C150.138 76.8466 150.486 76.9952 150.836 77.1444L150.848 77.1497L150.848 77.1497C151.376 77.3749 151.906 77.6012 152.447 77.772C151.011 75.7895 148.797 74.3206 146.666 73.2694C145.451 72.6696 144.162 72.186 142.865 71.7897L142.142 71.5731C141.079 71.26 139.916 70.9707 138.917 71.5951C138.521 71.8421 138.269 72.226 138.19 72.641C138.112 73.048 138.201 73.4844 138.482 73.8486C138.728 74.1659 139.033 74.3466 139.359 74.4085C139.718 74.4769 140.099 74.4018 140.445 74.2171C140.723 74.1965 140.805 74.2039 140.887 74.213L141.003 74.2272ZM123.61 81.0425L123.611 81.08C123.625 82.1562 124.354 84.3454 125.764 84.3454C127.191 84.3454 127.463 81.9289 127.403 80.9071L127.394 80.7797C127.273 79.1248 126.697 77.5563 125.764 77.5563C124.232 77.5563 123.613 79.9807 123.61 81.0425ZM146.162 81.413L146.162 81.3755C146.16 80.3136 145.54 77.8893 144.009 77.8893C143.052 77.8893 142.471 79.5392 142.37 81.2401L142.367 81.3094C142.322 82.3669 142.613 84.6783 144.009 84.6783C145.419 84.6783 146.148 82.4891 146.162 81.413ZM125.595 91.9035C126.059 92.5981 126.832 93.0448 127.891 92.9963C129.996 92.9002 132.508 92.1076 134.271 90.9615C134.73 90.6631 135.028 90.186 135.082 89.6749L135.116 89.3455C135.154 88.9858 134.999 88.6329 134.71 88.4161L134.394 88.2061C133.878 87.8627 133.197 87.8787 132.601 88.1474L132.005 88.416C130.895 88.9131 129.8 89.3718 128.598 89.6231C128.511 89.6414 128.423 89.6585 128.336 89.6744C128.254 89.6893 128.171 89.7034 128.088 89.7164C128.105 89.6347 128.125 89.5533 128.144 89.4722C128.164 89.3864 128.185 89.3004 128.207 89.2146C128.229 89.1261 128.254 89.038 128.278 88.9504C128.374 88.6007 128.483 88.2542 128.612 87.915C129.097 86.6396 129.871 85.4468 130.624 84.3091L130.713 84.1753C130.821 84.0123 130.939 83.8422 131.062 83.6662L131.101 83.6093C131.678 82.7809 132.302 81.8851 132.347 80.986C131.575 81.0345 130.927 81.509 130.357 81.9269L130.34 81.9394C129.552 82.5167 128.821 83.1769 128.158 83.8942C126.873 85.2856 125.719 87.0645 125.213 88.9034C124.924 89.9564 125.051 91.0895 125.595 91.9035ZM134.477 100.145C133.675 100.458 132.476 100.857 131.41 100.849C130.721 100.843 130.085 100.668 129.672 100.155C129.489 99.9284 129.37 99.6396 129.37 99.356C129.37 99.1226 129.454 98.8934 129.654 98.7115C130.402 98.033 131.4 98.0876 132.372 98.1408L132.441 98.1445C132.824 98.1654 133.204 98.1857 133.566 98.1683C134.067 98.1444 134.559 98.0786 135.054 98.0124L135.055 98.0122L135.056 98.0121L135.056 98.0121L135.056 98.0121L135.056 98.0121C135.225 97.9894 135.395 97.9667 135.565 97.9456L135.661 97.9337L135.671 97.9323H135.671H135.671H135.671H135.671C135.888 97.905 136.104 97.8777 136.323 97.8791C136.378 97.8795 136.448 97.8923 136.521 97.9059L136.522 97.9059L136.544 97.91C136.717 97.9415 136.899 97.966 137.091 97.9849C137.143 98.1094 137.121 98.2347 137.067 98.3557C136.975 98.5624 136.794 98.7589 136.624 98.9325C136.092 99.4668 135.38 99.7852 134.686 100.063L134.477 100.145Z" fill="black"/>
</svg>
