<svg width="333" height="560" viewBox="0 0 333 560" fill="none" xmlns="http://www.w3.org/2000/svg">
<g filter="url(#filter0_f_6_0)">
<ellipse cx="193" cy="507" rx="116" ry="29" fill="#D43B57" fill-opacity="0.26"/>
</g>
<path fill-rule="evenodd" clip-rule="evenodd" d="M187.111 274.593C187.267 275.365 187.502 276.2 187.746 276.948C186.528 278.119 184.803 279.688 183.565 280.821C184.789 273.274 181.064 266.308 178.784 259.169C179.644 258.069 182.639 256.942 182.543 255.722C182.312 251.202 181.971 246.157 181.479 240.498C179.814 222.825 178.158 204.395 182.087 186.668C182.355 184.741 182.763 182.715 185.352 182.671C193.001 213.049 186.803 243.635 186.972 274.205L186.749 274.404L187.111 274.593ZM198.563 523.496C204.848 523.497 210.625 522.358 216.218 520.05C217.832 519.483 219.837 518.779 220.116 517.639C220.576 514.518 220.258 511.451 219.921 508.205C219.388 502.635 219.441 498.306 217.935 492.309C216.323 486.74 214.95 482.387 216.523 476.629C216.649 474.914 215.305 473.17 214.418 471.567C213.161 469.226 212.524 466.79 211.526 464.39C213.486 464.048 215.522 463.579 217.404 462.998L217.72 464.133C217.79 464.383 217.981 464.51 218.289 464.51C218.479 464.51 218.966 464.418 219.037 464.012C218.742 459.627 218.314 455.264 217.865 450.808C213.199 407.893 206.135 372.515 194.271 337.231C191.421 328.968 188.511 320.366 188.49 311.388C190.11 311.041 191.914 310.842 193.565 311.07C205.33 308.349 203.004 283.514 202.536 276.081C203.366 275.832 204.294 275.48 204.983 275.009L205.261 275.145C216.943 246.211 212.146 198.373 209.474 166.213C207.721 154.653 210.187 133.771 199.916 128.059C191.624 125.128 183.368 123.481 174.702 121.548C173.098 120.629 171.117 120.104 169.326 119.509L170.251 118.211C171.465 116.505 171.303 113.16 169.716 111.984C168.741 112.038 167.371 113.015 166.439 113.474C165.098 110.708 163.857 107.814 162.966 104.49L162.646 104.604C161.709 95.2021 149.493 93.5611 142.605 96.703C135.085 100.822 139.002 110.141 135.583 116.868L134.344 115.219C132.431 115.184 128.383 117.687 127.409 118.627C126.711 118.952 127.216 121.136 127.114 122.015C117.027 124.294 103.22 124.92 100.013 136.218C94.6792 157.465 95.4292 179.246 89.3766 200.416C83.0404 217.577 73.7343 238.576 73.656 254.292C73.4753 257.237 73.0781 273.896 75.5211 273.227L77.1336 274.832C74.9368 278.331 76.6809 283.568 77.5223 287.711C79.5956 296.502 83.6471 305.974 92.3009 301.761C101.608 353.049 125.001 404.788 117.021 457.688C116.926 457.998 117.119 458.337 117.452 458.202L117.845 458.021C118.859 458.334 120.147 458.443 121.207 458.681C120.305 462.054 119.822 465.384 119.354 469.115C118.786 469.453 119.051 470.347 119.022 470.887C110.554 470.482 105.805 479.331 99.7316 484.198C95.7218 487.768 91.1553 491.167 86.1579 494.301C82.0283 496.643 78.5439 499.323 79.1713 503.746C79.1117 503.739 77.8375 503.542 77.7751 503.537C75.8541 509.916 82.1616 511.235 88.6575 512.003C104.531 513.596 118.101 510.076 136.479 503.406C138.733 503.673 140.49 500.329 140.79 498.061C141.086 496.542 140.243 494.996 140.887 493.361C143.103 488.661 144.256 476.221 141.132 470.64C140.035 469.375 138.629 468.208 138.811 466.025C138.862 463.837 139.068 461.652 138.883 459.504C142.638 459.141 146.356 458.334 149.632 457.024C150.212 457.247 150.871 456.973 150.911 456.248C151.54 446.248 152.293 435.321 152.455 425.084C153.21 402.804 148.105 381.064 144.198 359.456C143.926 352.524 142.644 345.827 142.24 338.892C141.805 332.315 141.728 325.876 141.35 319.308L143.605 318.82C162.325 366.984 176.985 415.187 187.246 462.354C187.014 462.552 186.354 462.775 186.382 463.177C186.39 463.392 186.384 463.406 186.532 463.427C189.011 463.925 191.464 464.289 193.92 464.573C193.228 470.459 196.923 477.261 193.653 482.774C192.784 484.103 192.747 484.38 193.279 485.294C188.515 494.143 185.563 501.506 183.649 509.417L182.416 508.376C180.629 509.672 180.592 512.119 180.553 514.706C180.68 516.212 179.943 517.791 181.072 519.059C183.791 522.23 193.265 523.478 198.563 523.496Z" fill="white"/>
<path fill-rule="evenodd" clip-rule="evenodd" d="M163.746 103.073C162.446 104.123 163.801 111.701 164.849 113.247C157.767 117.799 150.611 122.247 143.305 126.416L142.549 126.846L142.572 126.84C142.269 126.975 141.756 127.096 141.454 127.036L141.248 126.968C141.205 126.954 141.181 126.948 141.192 126.958C141.071 126.893 140.952 126.825 140.837 126.746C138.754 124.85 137.237 121.635 135.605 119.135C138.383 116.689 136.998 111.921 136.886 108.664C136.361 108.651 136.299 110.315 136.148 110.798L136.064 111.258C135.864 112.336 135.635 113.434 135.222 114.436C134.021 112.916 127.938 116.506 126.798 117.661C125.557 118.451 125.938 119.856 125.954 121.092C114.41 123.334 99.6893 124.911 98.1381 139.376C96.3129 147.136 95.3378 155.035 94.4358 162.943L94.2889 164.206C92.7122 177.814 91.3126 191.592 86.8607 204.622L85.1599 208.672C81.4797 217.454 77.8897 226.309 75.5397 235.55C73.7178 239.494 68.8666 277.132 76.1637 274.228C73.6686 278.293 75.5363 283.64 76.4025 287.986C78.1981 295.117 81.7819 306.772 91.424 303.335C98.6945 342.127 113.096 379.501 116.737 418.968C117.919 431.796 117.894 444.778 115.886 457.526C115.615 458.737 116.775 459.807 117.96 459.276C118.555 459.446 119.185 459.497 119.795 459.612C119.092 462.435 118.681 465.383 118.307 468.268L118.265 468.588L118.264 468.589C117.972 468.913 117.829 469.322 117.842 469.785C113.437 469.801 109.751 472.64 106.816 475.656C101.727 480.973 96.3529 486.043 90.2625 490.216C85.9028 493.754 78.2545 495.828 78.0091 502.405C75.7836 502.029 76.3162 506.884 76.711 508.167C77.1732 509.604 78.5163 510.431 79.8046 511.072C98.3291 517.269 118.733 511.233 136.345 504.578C139.432 504.986 141.638 500.908 141.968 498.219C142.304 496.735 141.515 495.292 141.975 493.846L142.127 493.449C142.681 491.995 143.205 490.574 143.521 489.034L143.567 488.713C144.318 483.392 144.922 474.382 142.067 469.931C138.736 467.081 140.46 464.35 140.126 460.553C143.415 460.179 146.667 459.436 149.744 458.254C150.957 458.512 152.015 457.531 152.095 456.356L152.214 454.478C152.835 444.702 153.481 434.916 153.643 425.119C154.402 402.891 149.357 381.138 145.384 359.427C144.993 351.058 143.393 342.792 143.168 334.402C142.999 329.346 142.79 324.304 142.536 319.257C160.553 365.605 175.34 413.247 185.952 461.832C184.976 462.493 184.869 464.297 186.322 464.586C188.448 465.009 190.589 465.356 192.738 465.617C192.394 470.834 195.503 477.891 192.623 482.313L192.508 482.49C191.961 483.338 191.427 484.306 191.985 485.291C188.243 492.303 184.998 499.62 183.002 507.344C180.722 506.41 179.422 511.037 179.49 512.709C179.636 514.9 178.453 518.595 180.346 520.093C190.288 526.491 203.785 525.499 214.622 521.956C216.632 521.095 218.936 520.51 220.659 519.135C221.44 518.344 221.386 517.044 221.45 516.016L221.469 515.484C221.571 512.527 221.562 509.514 220.751 506.601C220.967 502.382 220.337 498.106 219.506 493.978C218.974 490.646 217.442 487.48 217.235 484.117C216.148 481.108 218.109 478.294 217.582 475.287C217.152 473.454 215.803 471.87 215.022 470.163L214.967 470.041C214.261 468.489 213.755 466.881 213.142 465.289C214.315 465.066 215.473 464.791 216.614 464.461C217.16 466.436 220.32 465.878 220.227 463.865C217.631 431.399 212.474 399.114 204.491 367.529C200.767 348.848 191.149 331.43 189.699 312.367C190.853 312.151 192.168 312.095 193.299 312.226L193.434 312.242C194.156 312.332 194.85 312.458 195.625 312.094C205.564 305.966 204.543 287.191 203.788 276.914C204.237 276.765 204.666 276.58 205.056 276.348C205.402 276.605 205.926 276.619 206.128 276.147C206.637 274.953 207.291 273.787 207.733 272.573C219.25 233.045 211.896 191.39 209.577 151.096C208.674 142.817 208.667 131.578 200.428 127.016C197.663 125.709 194.543 125.148 191.597 124.394C184.835 122.381 177.772 121.479 171.222 118.903C172.746 116.79 172.384 113.709 171.114 111.583C170.107 110.054 168.174 111.224 166.979 111.875C165.6 109.062 164.654 106.062 163.746 103.073ZM182.585 509.149L182.524 509.432C182.201 510.947 181.923 512.537 182.085 514.078C177.801 518.246 197.539 518.773 199.718 518.764C204.702 518.713 219.355 517.055 220.08 511.057L220.072 511.201C219.975 513.109 220.299 516.671 219.259 518.081C211.401 522.161 202.259 523.776 193.464 522.77L193.148 522.728C189.642 522.247 182.983 520.832 181.253 517.914C181.636 515.198 180.697 511.307 182.585 509.149ZM196.799 482.207C201.61 476.981 209.511 480.801 214.584 483.716C214.776 486.005 216.383 486.847 216.448 489.248C217.529 496.581 220.019 504.871 216.847 511.952C207.388 517.006 196.14 516.664 185.907 514.488C185.639 514.14 185.301 514.036 184.818 513.903C184.513 511.755 185.129 509.595 185.535 507.509C186.558 503.126 187.882 498.821 189.059 494.478C191.169 493.118 191.94 490.261 193.04 488.107C193.339 487.503 193.644 486.898 193.965 486.299C195.682 485.737 196.131 483.69 196.799 482.207ZM140.409 496.624C140.926 501.895 135.775 503.996 131.611 505.261C126.924 506.924 122.122 508.305 117.293 509.498C107.401 512.042 97.0878 513.157 86.9477 511.562L86.7716 511.531C83.8459 511.017 78.6048 510.399 77.9396 507.018L77.9325 506.94C77.8874 506.386 77.801 504.301 78.0097 503.767C78.0864 503.766 78.1615 503.749 78.2333 503.714C79.0809 506.42 82.1693 508.065 85.1459 508.49C86.5498 509.897 89.136 509.375 91.0074 509.455C103.36 509.333 115.236 505.516 126.941 501.968C130.665 500.675 138.09 499.749 140.409 496.624ZM139.347 469.492C141.491 468.738 141.899 474.732 142.172 476.196C142.863 482.385 142.847 492.036 137.827 496.426C132.59 498.665 126.937 499.692 121.534 501.454L120.256 501.829C110.015 504.822 99.4913 507.62 88.7429 507.179C87.9319 505.56 82.7853 506.906 80.8223 504.021C78.1896 499.439 84.8378 496.487 87.9837 494.536C94.0253 490.665 99.6685 486.164 104.757 481.108C107.15 478.732 109.339 476.011 112.149 474.101L112.295 474.003C114.703 472.409 117.793 471.421 120.62 472.467C123.373 473.485 124.384 476.624 126.693 478.245C131.839 481.575 137.109 476.313 138.781 471.551L138.83 471.407C138.89 471.259 138.727 471.169 138.603 471.209C138.615 471.162 138.623 471.114 138.633 471.067C139.282 470.898 139.344 470.091 139.347 469.492ZM212.535 465.401C211.863 469.193 213.757 472.596 215.17 475.951C215.55 478.175 214.152 480.307 214.476 482.57C209.849 478.945 202.848 475.731 197.266 479.042C197.236 475.844 196.134 472.741 195.176 469.719L194.787 468.519C194.484 467.588 194.175 466.66 193.834 465.744C200.049 466.392 206.341 466.456 212.535 465.401ZM121.506 459.872C126.946 460.621 132.445 461.051 137.921 460.75L137.299 470.176C137.274 470.562 137.437 470.83 137.679 470.984C136.872 474.046 134.33 476.772 131.179 477.435C126.311 478.063 125.657 471.62 121.523 470.429C122.315 468.655 121.748 466.322 121.825 464.39C121.782 462.87 121.703 461.364 121.506 459.872ZM139.419 468.403C139.524 468.619 139.648 468.821 139.783 469.016C139.639 469.029 139.501 469.073 139.371 469.151C139.386 468.902 139.402 468.653 139.419 468.403ZM188.407 276.34C193.168 277.986 198.363 278.323 203.267 277.072C202.191 285.12 201.11 304.184 194.257 308.832C193.099 308.665 191.936 308.584 190.766 308.7C190.071 308.77 189.382 308.882 188.692 308.988C188.433 309.024 187.917 309.051 187.587 309.028L187.531 309.023C187.618 309.03 187.687 309.028 187.595 309.022L187.454 309.015L187.382 309.009C185.006 308.796 182.861 305.446 180.51 307.054C180.165 306.532 179.643 306.197 179.242 305.733C177.457 302.613 179.353 298.598 178.161 295.309C178.611 294.695 178.463 293.774 177.755 293.248C176.653 292.237 174.322 292.99 173.687 291.538C173.731 291.617 173.734 291.525 173.717 291.478L173.713 291.468L173.825 291.376C178.696 287.35 183.405 282.851 186.597 277.266L186.704 277.077C187.314 277.669 188.317 277.217 188.407 276.34ZM77.1988 273.609C80.5525 275.441 84.1632 276.768 87.909 277.535C88.6784 284.889 89.5627 292.247 90.7688 299.541L90.483 299.592C88.8103 299.897 87.0482 300.309 85.6031 299.158C80.8454 294.541 79.1306 285.257 77.2622 278.987L77.1885 278.702C76.796 277.164 76.3454 275.037 77.1988 273.609ZM125.965 121.606C126.464 124.103 123.709 151.281 128.734 146.632C132.136 141.299 136.027 136.309 139.505 131.031C139.984 132.918 138.582 135.159 139.244 136.759C130.393 181.036 123.972 225.996 121.593 271.102C117.681 273.844 114.251 277.169 110.888 280.538C109.84 281.428 109.079 282.882 107.778 283.394C102.495 277.43 96.3917 272.26 90.8373 266.556C90.8891 266.164 90.9475 265.775 91.0142 265.385C91.2912 263.765 89.2039 262.944 88.398 263.938C86.7131 259.668 86.5558 254.649 86.9731 250.067C87.7923 242.366 90.6705 235.008 92.7268 227.586C98.653 204.882 102.754 181.064 100.813 157.56C100.785 157.342 100.495 157.339 100.469 157.56C98.8586 182.391 96.3489 207.291 88.8702 231.158L88.6922 231.748C85.7702 241.394 82.1559 251.62 84.6572 261.737C84.4496 263.099 85.1043 264.456 86.0938 265.435C86.5342 266.499 87.0248 267.553 87.6071 268.546C87.4064 270.849 87.5035 273.158 87.7072 275.451C83.8631 274.63 80.2773 273.059 76.8485 271.165C76.645 270.009 76.4664 268.85 76.3279 267.686C73.6665 246.101 81.7845 225.11 89.9063 205.515C97.6454 182.679 96.1342 157.898 102.602 134.797C106.694 125.789 117.871 125.081 125.965 121.606ZM169.833 119.933L170.099 120.026C171.962 120.681 173.831 121.44 175.823 121.496C182.075 123.573 188.486 125.168 194.841 126.901L195.456 127.069C198.169 127.814 200.909 128.665 202.739 130.939C204.495 133.121 205.229 135.93 205.802 138.612C208.49 162.052 210.013 185.729 211.379 209.31C212.049 228.943 211.667 248.905 206.64 268.009C205.931 270.627 205.067 273.253 204.761 275.942C204.396 275.947 204.029 275.972 203.66 276.009C203.655 275.833 203.387 275.862 203.407 276.034C198.522 276.803 193.446 276.348 188.862 274.457C189.994 240.063 197.353 202.734 180.685 170.828C180.616 170.706 180.41 170.79 180.456 170.924L180.867 172.108C182.189 175.921 183.481 179.74 184.411 183.673C183.086 183.476 182.12 186.574 181.869 187.333C174.645 209.229 179.094 232.594 180.014 255.081C167.576 264.109 155.015 272.989 142.089 281.31C136.218 277.502 130.959 272.507 124.926 269.053C126.65 222.596 136.146 176.631 141.308 130.748C143.222 133.123 145.172 135.47 147.119 137.818C149.624 140.887 152.045 144.036 154.514 147.134C155.025 147.777 156.138 147.528 156.501 146.88C161.365 138.106 164.457 128.416 169.833 119.933ZM184.494 184.023C191.67 213.511 185.708 243.878 185.821 273.702C185.287 274.174 185.485 275.067 186.108 275.391C186.199 275.802 186.308 276.21 186.435 276.618C185.934 277.092 185.43 277.564 184.921 278.03C185.308 271.538 182.035 265.64 180.138 259.544C181.502 258.329 184.057 257.577 183.717 255.359C183.453 250.537 183.116 245.718 182.707 240.907L182.455 238.214C180.865 221.14 179.514 203.788 183.253 186.903L183.275 186.775C183.397 186.036 183.63 184.173 184.494 184.023ZM76.876 273.434L76.9342 273.465L76.8045 273.575C76.8311 273.53 76.8544 273.482 76.876 273.434ZM119.798 263.387C121.461 261.76 118.893 259.18 117.251 260.846C115.59 262.476 118.159 265.055 119.798 263.387ZM120.894 244.039C121.261 243.077 120.239 241.551 119.159 242.19L119.125 242.211L119.11 242.191C118.087 242.794 118.465 244.043 119.065 244.787C119.731 245.471 120.559 244.659 120.894 244.039ZM122.455 221.765C125.348 217.982 119.269 216.43 120.265 221.087C120.478 221.958 122.228 223.228 122.455 221.765ZM126.733 200.689C128.269 198.816 124.968 197.204 124.277 199.44C123.882 200.931 125.746 201.851 126.733 200.689ZM111.371 154.226C110.461 154.367 105.865 153.43 107.047 155.34C105.198 164.563 99.997 175.816 107.423 183.874L107.489 183.939C108.584 185.031 110.336 187.627 112.012 186.557C115.732 183.425 120.525 181.187 123.368 177.179C124.563 174.034 123.545 170.521 123.861 167.231C123.996 163.07 124.69 158.947 124.839 154.792C124.845 154.591 124.627 154.526 124.49 154.611C120.128 154.265 115.742 154.341 111.371 154.226ZM124.343 154.902C122.369 161.314 122.324 168.17 122.377 174.816C122.346 175.501 122.225 176.168 121.867 176.691C119.046 180.011 115.026 182.092 111.677 184.85C110.321 183.966 109.248 182.836 108.286 181.555C102.402 173.869 107.734 164.194 107.728 155.635L108.482 155.637C113.764 155.644 119.096 155.574 124.343 154.902ZM128.783 178.715L128.732 178.716C126.708 178.721 127.172 182.144 129.082 181.675C130.693 181.294 130.447 178.736 128.783 178.715ZM132.753 161.242C134.155 158.857 129.528 157.934 130.015 160.689L130.004 160.576C130.002 160.554 130 160.534 129.998 160.517L130.033 160.775C130.202 161.993 132.612 162.866 132.753 161.242ZM135.86 141.49C134.574 141.15 133.625 142.953 134.729 143.761C136.369 144.996 137.781 141.919 135.86 141.49ZM167.394 113.554L167.55 113.409C169.229 111.871 170.487 111.101 170.859 114.236C171.118 115.765 170.896 117.693 169.428 118.597C162.398 125.535 159.733 135.44 155.203 143.972C151.113 139.028 147.306 133.881 143.35 128.836C148.8 125.522 154.304 122.232 159.68 118.774C162.25 117.069 165.014 115.517 167.394 113.554ZM132.004 117.643C134.119 121.088 136.071 124.814 138.767 127.862C139.111 128.207 139.468 128.48 139.836 128.688C139.309 128.536 138.61 128.93 138.677 129.507C134.752 133.412 131.544 137.954 128.479 142.55C127.893 134.947 129.01 127.313 128.577 119.698C129.573 118.784 130.76 118.158 132.004 117.643Z" fill="black"/>
<path fill-rule="evenodd" clip-rule="evenodd" d="M115.496 53.9248C115.552 51.9336 118.454 51.1069 119.293 53.0789C119.345 53.1317 119.401 53.1825 119.454 53.2279C119.192 53.0033 119.741 53.375 119.83 53.4209C119.906 53.4602 119.985 53.4957 120.062 53.5323C120.602 48.4879 122.432 43.0499 127.163 40.5179C133.761 37.3248 141.385 36.7015 148.623 37.0187C152.29 37.2359 156.525 37.821 159.783 35.9697C160.798 35.3929 161.611 34.4849 162.758 34.1284C166.38 33.1508 168.022 36.8617 167.529 39.9134C169.073 39.9256 170.606 40.779 171.272 42.184C171.664 43.0156 171.657 43.9129 171.994 44.7475C173.03 46.8639 174.512 48.3852 173.674 50.9512C175.148 52.6245 174.307 55.1577 173.118 56.7597C172.531 57.593 171.832 58.3929 171.402 59.3255C170.984 60.2186 171.615 61.2776 171.965 62.1242C174.558 68.2601 174.41 75.0174 173.015 81.4176C175.815 82.63 176.655 86.4198 174.829 88.8062C174.201 89.6497 173.435 89.9628 172.566 90.4818C171.466 91.0859 172.364 93.5057 172.012 94.6743C171.533 97.5272 168.93 99.2841 166.357 97.4315C164.723 97.1848 163.406 101.927 162.22 103.117C161.49 104.076 160.678 104.938 159.796 105.732C157.168 112.48 143.703 115.902 137.045 115.512C130.073 114.783 125.37 108.874 121.453 103.63C119.442 100.836 118.134 97.7082 117.658 94.2971C117.181 90.8689 117.39 87.4346 117.713 84.0022C118.391 76.7095 119.462 66.2031 120.153 58.8317C117.655 58.6264 115.421 56.5038 115.496 53.9248Z" fill="white"/>
<path fill-rule="evenodd" clip-rule="evenodd" d="M169.954 49.5401C169.957 49.5504 169.953 49.5582 169.951 49.5692C169.95 49.566 169.95 49.5643 169.949 49.5605C169.951 49.5522 169.952 49.5468 169.954 49.5401Z" fill="#4F66AF"/>
<path fill-rule="evenodd" clip-rule="evenodd" d="M169.956 49.6461C169.965 49.6365 169.978 49.6293 169.991 49.6197C169.991 49.62 169.991 49.6204 169.991 49.6207C169.979 49.6287 169.968 49.6378 169.956 49.6461Z" fill="#4F66AF"/>
<path fill-rule="evenodd" clip-rule="evenodd" d="M115.894 54.8674C115.073 54.187 113.781 54.8134 114.059 55.9336C114.361 57.1534 115.671 57.987 116.753 58.4882C117.866 59.0039 118.95 59.1033 120.165 59.0471L120.18 59.0437C119.843 60.393 119.651 61.7955 119.394 63.153C119.066 64.8751 118.744 66.598 118.427 68.3218C118.12 69.9879 117.732 71.6562 117.496 73.3307C117.259 75.021 117.03 76.7124 116.797 78.4032C116.407 81.2272 116.092 84.064 115.761 86.8961L115.602 88.2366C115.27 91.074 115.003 93.9148 115.632 96.7383C116.222 99.3846 117.552 101.853 119.094 104.062C120.604 106.225 122.291 108.305 124.143 110.186C127.715 113.815 132.12 116.721 137.285 117.26C139.509 117.492 141.884 117.234 143.975 116.427L144.114 116.373C146.231 115.539 148.822 114.111 149.373 111.768C149.711 110.331 148.227 109.208 146.926 109.891C146.323 110.207 145.87 110.568 145.375 111.021L145.287 111.101C144.883 111.476 144.727 111.591 144.26 111.885C143.303 112.486 142.586 112.77 141.498 113.043C139.494 113.546 137.33 113.467 135.295 112.872C130.975 111.608 127.623 108.311 124.752 105.005C123.193 103.21 121.713 101.327 120.572 99.2347C119.374 97.0396 118.822 94.7348 118.855 92.2371C118.892 89.4188 119.283 86.5896 119.539 83.7847C119.8 80.9251 120.041 78.0665 120.253 75.203C120.453 72.5176 120.472 69.8201 120.541 67.1263L120.555 66.6213C120.596 65.1913 120.624 63.7608 120.657 62.3304C120.689 60.9042 120.802 59.4598 120.655 58.0396C120.645 57.9362 120.505 57.9101 120.471 58.0147C120.384 58.2808 120.308 58.551 120.236 58.8228C120.225 58.8144 120.213 58.8069 120.198 58.8018C119.246 58.4754 118.37 57.8238 117.656 57.1211C116.974 56.4506 116.618 55.4683 115.894 54.8674ZM167.964 34.8859C167.366 32.4355 164.676 31.8881 162.686 33.0682C161.729 33.6357 160.963 34.4541 160.069 35.1045C159.181 35.7513 158.199 36.2706 157.162 36.6375C155.103 37.3661 152.932 37.631 150.756 37.6405C145.46 37.6637 140.272 36.1784 134.969 36.3441C130.865 36.4723 126.509 37.6827 123.532 40.6433C121.929 42.2382 120.895 44.2886 120.341 46.4655C120.082 47.4829 119.889 48.5249 119.736 49.5646L119.699 49.8244C119.614 50.432 119.477 51.0753 119.464 51.6894C119.453 52.2409 119.593 52.818 119.669 53.3639C119.828 54.5145 121.614 54.3834 121.871 53.3639C122.455 51.0425 122.21 48.6467 122.924 46.3333C123.558 44.2818 124.785 42.4881 126.563 41.2614C134.064 36.0861 143.684 40.42 151.949 40.0174C153.97 39.919 156.019 39.6074 157.925 38.9132C158.907 38.5552 159.875 38.1186 160.766 37.5694C161.582 37.0666 162.289 36.4349 163.044 35.8535L163.378 35.6007C163.896 35.2118 164.778 34.6037 165.3 35.1182C165.528 35.3421 165.541 35.8484 165.537 36.2351L165.535 36.4098C165.511 38.0513 165.176 39.6898 165.791 41.2757C166.072 41.9991 166.852 42.4551 167.594 42.0455L167.633 42.0235C169.203 41.0915 171.265 42.9644 170.059 44.5144L170.022 44.5612C169.343 45.3842 169.705 46.8334 170.919 46.8297L170.963 46.829C173.127 46.7616 174.087 49.4602 172.222 50.6394L172.165 50.6746C170.65 51.579 171.978 53.7532 173.53 53.0067C173.399 53.07 173.627 53.0691 173.758 53.2443C173.884 53.4125 173.893 53.558 173.863 53.7705C173.773 54.4142 173.206 54.9567 172.746 55.364C171.702 56.2894 170.408 56.9283 169.075 57.3172C163.734 58.8755 158.255 56.9694 153.051 55.8183C147.626 54.6182 141.498 54.1348 136.767 57.5402C136.711 57.5805 136.76 57.6706 136.822 57.6346C140.218 55.6668 144.376 55.8414 148.088 56.6482C152.955 57.7062 157.779 59.6756 162.764 60.1945C161.365 62.6599 160.779 65.5717 161.153 68.3916C161.41 70.3328 162.184 72.0166 163.099 73.7229L163.273 74.0481C164.088 75.5797 164.72 77.0266 164.73 78.801C164.74 80.5639 167.366 80.9355 167.811 79.2173C168.822 75.315 165.14 72.2413 163.638 69.0234C162.354 66.2726 162.314 63.0653 163.353 60.2487C164.525 60.3428 165.707 60.3526 166.9 60.2464C167.925 60.155 168.98 59.9707 170.007 59.6789L170.419 61.404C170.963 63.7018 171.468 65.998 171.621 68.3847C171.734 70.1384 171.728 71.9008 171.556 73.6502C171.408 75.1611 171.096 76.6183 170.777 78.0935C170.504 78.4528 170.365 79.0028 170.442 79.4409C168.67 79.9501 167.276 81.3455 166.767 83.1936C166.736 83.3062 166.894 83.3695 166.953 83.2719C168.161 81.2714 171.272 80.5352 173.24 81.8569C175.119 83.1187 175.861 85.6664 174.797 87.6832C174.237 88.7436 173.408 89.4889 172.338 90.002L172.123 90.1028C171.562 90.3676 171.047 90.6561 170.687 91.1878C170.219 91.8775 170.203 92.6066 170.248 93.3948L170.267 93.7142C170.296 94.2425 170.303 94.7862 170.145 95.2944L170.109 95.4074C170.068 95.5342 170.024 95.6459 169.948 95.767C169.926 95.803 169.713 96.0114 169.643 96.0869L169.556 96.1132L169.458 96.1172C169.35 96.1189 169.207 96.0719 169.254 96.1045L169.241 96.0972C169.2 96.0716 169.162 96.0446 169.13 96.0205L169.07 95.9733C168.928 95.769 168.75 95.6002 168.533 95.4714L168.325 95.379C167.784 94.8095 166.858 95.1088 166.471 95.6761C166.192 96.084 166.042 96.4988 166.03 96.908C165.986 96.8382 165.889 96.8001 165.828 96.8782L165.46 97.3453C164.055 99.1375 162.674 100.941 161.077 102.574C160.197 103.475 159.25 104.321 158.261 105.1C157.417 105.765 155.814 106.405 155.79 107.617C155.782 108.01 156.062 108.289 156.404 108.422C157.519 108.856 158.896 107.379 159.701 106.66L159.766 106.602C160.751 105.741 161.65 104.796 162.48 103.785C164.091 101.821 165.439 99.5617 166.032 97.0758C166.06 97.5096 166.247 97.9347 166.61 98.3358C167.093 98.8697 167.755 99.244 168.461 99.3982C170.062 99.7474 171.625 99.1724 172.578 97.8411C173.383 96.7156 173.62 95.2295 173.516 93.8698L173.503 93.7066C173.489 93.4885 173.47 93.0884 173.414 92.9181L173.918 92.6419C174.536 92.3137 175.109 91.8834 175.623 91.4105C177.689 89.5095 178.725 86.4202 177.781 83.7168C177.19 82.0257 175.949 80.5542 174.359 79.7894C174.625 79.1766 174.713 78.4488 174.814 77.8048L174.83 77.6983C175.001 76.642 175.143 75.5723 175.197 74.5032C175.299 72.5067 175.175 70.4916 174.861 68.5182C174.35 65.313 173.293 61.9137 171.356 59.2248C172.834 58.639 174.194 57.791 175.245 56.6134C176.342 55.3828 177.042 53.6211 176.193 52.0584C175.977 51.6601 175.695 51.3252 175.371 51.0593C175.933 50.0009 176.114 48.7501 175.768 47.5545C175.354 46.1251 174.229 45.0103 172.871 44.4898C173.201 43.1355 172.931 41.6789 171.923 40.5502C170.923 39.4306 169.371 39.0228 167.934 39.2787C167.856 37.8384 168.31 36.3064 167.964 34.8859ZM171.993 85.4563C170.676 84.8129 169.114 84.9151 167.798 85.5249L167.709 85.5671C166.272 86.2624 164.37 87.8869 164.826 89.6146C165.094 90.625 166.218 90.9701 167.091 90.534C167.819 90.1695 167.986 89.5179 168.351 88.8633C168.61 88.4004 168.929 88.0386 169.304 87.6664C170.095 86.8823 170.984 86.2998 171.993 85.8338C172.139 85.7665 172.134 85.525 171.993 85.4563ZM138.799 50.5332C138.922 50.4769 138.833 50.2839 138.709 50.3192C135.398 51.2627 132.311 53.3804 130.467 56.3199C130.355 56.4993 130.337 56.7945 130.467 56.972L130.527 57.0526C130.611 57.1628 130.695 57.2441 130.854 57.2687C131.153 57.315 131.413 57.2373 131.585 56.972C133.402 54.1702 135.73 51.9343 138.799 50.5332ZM116.636 51.0881C116.356 50.614 115.612 50.7094 115.464 51.2409L115.443 51.2872C115.363 51.4684 115.399 51.5055 115.548 51.403C115.179 51.7064 115.012 52.1583 115.125 52.6442C115.734 55.2684 118.713 57.1424 121.309 56.8845C121.536 56.862 121.567 56.5841 121.362 56.5011C120.363 56.0975 119.476 55.4419 118.763 54.6375C118.07 53.8556 117.779 52.9609 117.406 52.0166C117.266 51.6621 117.048 51.4068 116.742 51.2674C116.701 51.2115 116.666 51.1519 116.636 51.0881ZM131.402 49.4017L131.384 49.4028C130.05 49.5748 128.896 50.2319 127.959 51.1947C127.056 52.1218 125.918 53.6517 126.015 55.0123C126.08 55.9144 127.365 56.43 127.844 55.5069C128.131 54.9561 128.195 54.3523 128.396 53.7698C128.58 53.236 128.834 52.7291 129.138 52.2537C129.764 51.2742 130.624 50.4445 131.505 49.6959C131.609 49.6082 131.537 49.4021 131.402 49.4017ZM165.621 49.002C165.917 48.7209 165.61 48.2417 165.233 48.3366C163.249 48.8379 161.284 49.4477 159.221 49.5083C158.19 49.5385 157.166 49.4574 156.145 49.3243L155.628 49.2558C154.832 49.1522 154.022 49.0707 153.235 49.2339C152.711 49.3427 152.608 50.017 152.935 50.3689C154.479 52.0305 157.456 51.8717 159.503 51.5916C161.726 51.2872 163.969 50.5729 165.621 49.002ZM129.787 43.8227C129.923 43.6347 129.694 43.338 129.478 43.4214C127.506 44.182 125.439 46.1624 124.896 48.2343C124.752 48.7817 125.444 49.195 125.85 48.7887C126.607 48.0315 127.141 47.1372 127.781 46.2861C128.419 45.4377 129.165 44.6842 129.787 43.8227ZM162.098 44.7479C162.256 44.5903 162.097 44.2762 161.87 44.3565C160.586 44.8102 159.292 45.2029 157.943 45.4088C156.562 45.6196 155.167 45.4595 153.779 45.5449C153.217 45.5794 152.834 46.4516 153.459 46.723C156.234 47.9287 160.003 46.8354 162.098 44.7479ZM158.552 42.0435C158.773 41.8806 158.647 41.4337 158.347 41.5584C157.124 42.0665 155.888 42.1914 154.576 42.1391C154.091 42.1196 153.989 42.8797 154.462 42.9823C155.912 43.2972 157.367 42.918 158.552 42.0435Z" fill="black"/>
<path fill-rule="evenodd" clip-rule="evenodd" d="M127.149 74.2343C126.419 74.2121 125.714 74.2741 125.002 74.4285C123.587 74.7351 121.877 75.2747 120.76 76.2099L120.768 76.184C121.003 75.4205 121.233 74.6714 121.716 74.0196C122.295 73.2376 123.037 72.5979 123.891 72.1229C124.756 71.6417 125.73 71.3388 126.709 71.2118C127.7 71.0835 129.14 70.931 129.979 71.5652C130.257 71.7747 130.486 72.0139 130.623 72.2977C130.738 72.538 130.785 72.81 130.738 73.1211C130.692 73.4223 130.551 73.739 130.337 73.9868C130.154 74.1988 129.917 74.3612 129.639 74.4116C129.114 74.5066 128.628 74.4284 128.141 74.3501L128.117 74.3464C127.799 74.2951 127.479 74.2442 127.149 74.2343ZM141.002 74.2272C141.205 74.2509 141.407 74.282 141.609 74.3141C142.198 74.4077 142.784 74.5201 143.366 74.6511C144.471 74.9001 145.567 75.2144 146.642 75.5696C147.648 75.9021 148.639 76.2779 149.629 76.6537L149.788 76.7138C150.137 76.8465 150.486 76.9951 150.835 77.1443L150.848 77.1496L150.848 77.1496C151.375 77.3749 151.906 77.6011 152.447 77.772C151.01 75.7895 148.796 74.3205 146.666 73.2693C145.451 72.6696 144.161 72.186 142.864 71.7897L142.142 71.5731C141.078 71.2599 139.915 70.9706 138.916 71.595C138.521 71.842 138.269 72.2259 138.189 72.641C138.111 73.048 138.2 73.4844 138.482 73.8486C138.727 74.1658 139.033 74.3465 139.358 74.4085C139.718 74.4768 140.098 74.4017 140.445 74.2171C140.722 74.1964 140.804 74.2039 140.886 74.213L141.002 74.2272ZM123.61 81.0425L123.61 81.08C123.625 82.1561 124.353 84.3453 125.764 84.3453C127.191 84.3453 127.462 81.9288 127.402 80.9071L127.394 80.7796C127.272 79.1247 126.697 77.5562 125.764 77.5562C124.232 77.5562 123.612 79.9806 123.61 81.0425ZM146.162 81.4129L146.162 81.3754C146.16 80.3136 145.54 77.8892 144.008 77.8892C143.051 77.8892 142.47 79.5392 142.37 81.24L142.366 81.3094C142.322 82.3668 142.613 84.6783 144.008 84.6783C145.419 84.6783 146.147 82.4891 146.162 81.4129ZM125.594 91.9034C126.058 92.5981 126.831 93.0448 127.89 92.9962C129.995 92.9002 132.508 92.1075 134.271 90.9614C134.73 90.663 135.028 90.1859 135.081 89.6748L135.115 89.3454C135.153 88.9858 134.999 88.6328 134.709 88.4161L134.394 88.2061C133.878 87.8626 133.197 87.8786 132.6 88.1473L132.004 88.4159C130.894 88.9131 129.799 89.3718 128.598 89.623C128.51 89.6413 128.423 89.6584 128.336 89.6743C128.253 89.6893 128.17 89.7033 128.087 89.7163C128.105 89.6346 128.124 89.5533 128.143 89.4721C128.164 89.3863 128.184 89.3003 128.206 89.2146C128.229 89.126 128.253 89.038 128.277 88.9503C128.374 88.6007 128.482 88.2542 128.611 87.9149C129.096 86.6396 129.87 85.4468 130.624 84.3091L130.712 84.1752C130.82 84.0122 130.939 83.8421 131.061 83.6662L131.101 83.6093C131.677 82.7808 132.301 81.885 132.346 80.9859C131.574 81.0344 130.927 81.5089 130.356 81.9269L130.339 81.9394C129.551 82.5167 128.821 83.1769 128.158 83.8941C126.872 85.2856 125.719 87.0645 125.213 88.9034C124.923 89.9564 125.051 91.0894 125.594 91.9034ZM134.476 100.145C133.675 100.458 132.476 100.857 131.409 100.849C130.721 100.843 130.085 100.668 129.671 100.155C129.489 99.9283 129.369 99.6396 129.369 99.3559C129.369 99.1225 129.453 98.8933 129.654 98.7114C130.402 98.0329 131.399 98.0875 132.371 98.1407L132.44 98.1445C132.823 98.1653 133.203 98.1856 133.565 98.1683C134.067 98.1443 134.559 98.0786 135.053 98.0123L135.054 98.0122L135.055 98.0121L135.055 98.0121L135.055 98.012L135.055 98.012C135.225 97.9893 135.394 97.9666 135.565 97.9456L135.66 97.9336L135.671 97.9323H135.671H135.671H135.671H135.671C135.887 97.905 136.104 97.8776 136.322 97.879C136.377 97.8794 136.447 97.8923 136.521 97.9058L136.521 97.9058L136.544 97.91C136.716 97.9414 136.898 97.966 137.09 97.9848C137.142 98.1093 137.12 98.2346 137.066 98.3557C136.974 98.5623 136.793 98.7588 136.623 98.9325C136.092 99.4668 135.379 99.7852 134.685 100.063L134.476 100.145Z" fill="black"/>
<defs>
<filter id="filter0_f_6_0" x="53" y="454" width="280" height="106" filterUnits="userSpaceOnUse" color-interpolation-filters="sRGB">
<feFlood flood-opacity="0" result="BackgroundImageFix"/>
<feBlend mode="normal" in="SourceGraphic" in2="BackgroundImageFix" result="shape"/>
<feGaussianBlur stdDeviation="12" result="effect1_foregroundBlur_6_0"/>
</filter>
</defs>
</svg>
