<svg width="27" height="26" viewBox="0 0 27 26" stroke="white" fill="none" xmlns="http://www.w3.org/2000/svg">
<g clip-path="url(#clip0)">
<path d="M17.8312 23.822V19.6315C17.8719 19.1152 17.8021 18.5962 17.6266 18.1089C17.4511 17.6216 17.1739 17.1773 16.8134 16.8054C20.2134 16.4264 23.7867 15.1379 23.7867 9.22572C23.7864 7.71392 23.2049 6.26011 22.1625 5.16517C22.6561 3.84252 22.6212 2.38055 22.065 1.08297C22.065 1.08297 20.7873 0.703983 17.8312 2.68553C15.3495 2.01291 12.7334 2.01291 10.2516 2.68553C7.29548 0.703983 6.01777 1.08297 6.01777 1.08297C5.46161 2.38055 5.42671 3.84252 5.92031 5.16517C4.87012 6.26823 4.288 7.73519 4.29609 9.2582C4.29609 15.127 7.86937 16.4156 11.2694 16.8379C10.9132 17.206 10.6384 17.645 10.463 18.1263C10.2877 18.6077 10.2156 19.1205 10.2516 19.6315V23.822M10.2516 20.5736C4.8375 22.1978 4.8375 17.8666 2.67188 17.3252L10.2516 20.5736Z" stroke="var(--white)" stroke-width="2.16563" stroke-linecap="round" stroke-linejoin="round"/>
</g>
<defs>
<clipPath id="clip0">
<rect width="25.9875" height="25.9875" fill="white" transform="translate(0.506348)"/>
</clipPath>
</defs>
</svg>
