<svg width="25" height="25" viewBox="0 0 25 25" fill="none" xmlns="http://www.w3.org/2000/svg">
<path d="M16.6665 8.33337C18.3241 8.33337 19.9138 8.99185 21.0859 10.164C22.258 11.3361 22.9165 12.9258 22.9165 14.5834V21.875H18.7498V14.5834C18.7498 14.0308 18.5303 13.5009 18.1396 13.1102C17.7489 12.7195 17.219 12.5 16.6665 12.5C16.114 12.5 15.5841 12.7195 15.1934 13.1102C14.8027 13.5009 14.5832 14.0308 14.5832 14.5834V21.875H10.4165V14.5834C10.4165 12.9258 11.075 11.3361 12.2471 10.164C13.4192 8.99185 15.0089 8.33337 16.6665 8.33337V8.33337Z" stroke="#111111" stroke-width="2.08333" stroke-linecap="round" stroke-linejoin="round"/>
<path d="M6.25016 9.375H2.0835V21.875H6.25016V9.375Z" stroke="#111111" stroke-width="2.08333" stroke-linecap="round" stroke-linejoin="round"/>
<path d="M4.16683 6.25004C5.31742 6.25004 6.25016 5.3173 6.25016 4.16671C6.25016 3.01611 5.31742 2.08337 4.16683 2.08337C3.01624 2.08337 2.0835 3.01611 2.0835 4.16671C2.0835 5.3173 3.01624 6.25004 4.16683 6.25004Z" stroke="#111111" stroke-width="2.08333" stroke-linecap="round" stroke-linejoin="round"/>
</svg>
